<svg xmlns="http://www.w3.org/2000/svg" width="64.625" height="25.78" viewBox="0 0 64.625 25.78">
  <defs>
    <style>
      .cls-1 {
        fill: #b9b9b9;
        fill-rule: evenodd;
      }
    </style>
  </defs>
  <path id="logo-small.svg" class="cls-1" d="M737.741,6305.33a12.8,12.8,0,0,0-2.081,1.05q-0.982.63-1.929,1.32c-0.631.46-1.261,0.92-1.892,1.37a16.521,16.521,0,0,1-1.959,1.23,12.144,12.144,0,0,1-2.13.88,8.48,8.48,0,0,1-2.411.33,5.237,5.237,0,0,1-1.868-.31,3.548,3.548,0,0,1-1.4-.97,4.393,4.393,0,0,1-.885-1.61,7.418,7.418,0,0,1-.311-2.27,11.856,11.856,0,0,1,.177-1.94,18.827,18.827,0,0,1,.507-2.17,22.307,22.307,0,0,1,.8-2.25,20.188,20.188,0,0,1,1.056-2.16,16.11,16.11,0,0,1,1.276-1.95,9.966,9.966,0,0,1,1.459-1.58,7,7,0,0,1,1.605-1.05,4.015,4.015,0,0,1,1.715-.39,3,3,0,0,1,1.263.23,2.468,2.468,0,0,1,.849.59,2.3,2.3,0,0,1,.476.87,3.686,3.686,0,0,1,.146,1.04,4.331,4.331,0,0,1-.409,1.9,5.081,5.081,0,0,1-1.05,1.49,4.826,4.826,0,0,1-1.44.96,3.959,3.959,0,0,1-1.581.34,2.174,2.174,0,0,1-.482-0.04c-0.126-.03-0.234-0.06-0.323-0.09a1.709,1.709,0,0,0-.245-0.09,0.667,0.667,0,0,0-.256-0.05,0.57,0.57,0,0,0-.384.12,0.839,0.839,0,0,0-.214.32,1.754,1.754,0,0,0-.1.44,4.384,4.384,0,0,0-.024.45c0,0.1,0,.19.006,0.28s0.006,0.17.006,0.24a0.941,0.941,0,0,0,.549.86,3.58,3.58,0,0,0,1.661.3,4.785,4.785,0,0,0,1.684-.32,7.445,7.445,0,0,0,1.624-.86,8.416,8.416,0,0,0,1.458-1.29,9.962,9.962,0,0,0,1.178-1.59,8.6,8.6,0,0,0,.788-1.77,6.2,6.2,0,0,0,.287-1.83,5.519,5.519,0,0,0-.458-2.33,5.071,5.071,0,0,0-1.178-1.64,4.585,4.585,0,0,0-1.624-.95,5.378,5.378,0,0,0-1.782-.31,7.685,7.685,0,0,0-2.612.44,9.995,9.995,0,0,0-2.393,1.22,13.541,13.541,0,0,0-2.136,1.83,17.785,17.785,0,0,0-1.837,2.28,21.511,21.511,0,0,0-1.5,2.57,22.177,22.177,0,0,0-1.116,2.69,18.941,18.941,0,0,0-.7,2.64,13.08,13.08,0,0,0-.245,2.43,9.513,9.513,0,0,0,.507,3.1,8.116,8.116,0,0,0,1.447,2.59,7.05,7.05,0,0,0,2.264,1.77,6.7,6.7,0,0,0,2.972.65,16.2,16.2,0,0,0,2.716-.2,13.756,13.756,0,0,0,2.247-.54,11.391,11.391,0,0,0,1.861-.79,15.843,15.843,0,0,0,1.557-.94,12.2,12.2,0,0,0,1.33-1.07c0.411-.39.808-0.75,1.19-1.1s0.761-.66,1.136-0.95a5.3,5.3,0,0,1,1.159-.7v-2.72Zm10.656,0.96a17.227,17.227,0,0,1-1.209,1.47,6.917,6.917,0,0,1-.543.54,5.93,5.93,0,0,1-.574.47,2.883,2.883,0,0,1-.567.33,1.232,1.232,0,0,1-.537.13,0.431,0.431,0,0,1-.446-0.32,2.893,2.893,0,0,1-.1-0.87,7.989,7.989,0,0,1,.2-1.61c0.134-.64.254-1.21,0.359-1.7s0.2-.99.279-1.46a7.648,7.648,0,0,0,.123-1.29,2.182,2.182,0,0,0-.068-0.61,0.768,0.768,0,0,0-.189-0.34,0.578,0.578,0,0,0-.282-0.17,1.867,1.867,0,0,0-.344-0.03H744.22a2.583,2.583,0,0,1-.276.01c-0.106,0-.211-0.01-0.313-0.02a1.083,1.083,0,0,1-.3-0.08,0.57,0.57,0,0,1-.245-0.2c-0.066-.09-0.133-0.18-0.2-0.27a1.145,1.145,0,0,0-.264-0.26,0.8,0.8,0,0,0-.442-0.11,4.086,4.086,0,0,0-1.664.36,6.518,6.518,0,0,0-1.553.97,8.385,8.385,0,0,0-1.357,1.42,11.434,11.434,0,0,0-1.161,1.94,11.834,11.834,0,0,0-.8,2.08,7.171,7.171,0,0,0-.258,1.87,3.936,3.936,0,0,0,.257,1.46,3.255,3.255,0,0,0,.683,1.09,2.962,2.962,0,0,0,.983.69,2.85,2.85,0,0,0,1.141.24,3.572,3.572,0,0,0,1.108-.18,5.926,5.926,0,0,0,1.064-.46,6.08,6.08,0,0,0,.941-0.64,6.167,6.167,0,0,0,.727-0.68,4.163,4.163,0,0,0,.935,1.49,1.894,1.894,0,0,0,1.352.51,3.025,3.025,0,0,0,1.343-.33,6.587,6.587,0,0,0,1.257-.82,9.427,9.427,0,0,0,1.056-1.01,10.066,10.066,0,0,0,.751-0.93Zm-9.746.59a8.519,8.519,0,0,1,.482-1.4,9.428,9.428,0,0,1,.7-1.35,5.964,5.964,0,0,1,.775-0.96,3.617,3.617,0,0,1,.9-0.68,2.145,2.145,0,0,1,.977-0.24l-0.911,3.97a7.152,7.152,0,0,1-.214.98,6.94,6.94,0,0,1-.434,1.14,3.771,3.771,0,0,1-.636.95,1.1,1.1,0,0,1-.819.39,0.767,0.767,0,0,1-.465-0.14,1.12,1.12,0,0,1-.293-0.38,1.908,1.908,0,0,1-.153-0.53,4.212,4.212,0,0,1-.043-0.61A4.988,4.988,0,0,1,738.651,6306.88Zm13.324-2.51q0.414-.78.958-1.8c0.362-.68.73-1.41,1.105-2.18s0.74-1.56,1.1-2.38,0.678-1.62.958-2.42a21.645,21.645,0,0,0,.678-2.3,9.1,9.1,0,0,0,.256-2.03,5.77,5.77,0,0,0-.1-1.11,2.241,2.241,0,0,0-.348-0.85,1.627,1.627,0,0,0-.672-0.55,2.571,2.571,0,0,0-1.08-.2,3.75,3.75,0,0,0-2.249.71,6.4,6.4,0,0,0-1.705,1.91,13.192,13.192,0,0,0-1.235,2.79,20.919,20.919,0,0,0-.763,3.34c-0.171,1.16-.343,2.34-0.515,3.52s-0.292,2.32-.357,3.42-0.1,2.1-.116,3.01-0.018,1.63-.018,2.19c0,0.32.012,0.64,0.037,0.94a3.362,3.362,0,0,0,.158.82,1.373,1.373,0,0,0,.354.58,1.028,1.028,0,0,0,1.136.09,1.161,1.161,0,0,0,.36-0.37,3.775,3.775,0,0,0,.335-0.65c0.114-.27.261-0.59,0.44-0.95a21.3,21.3,0,0,1,1.2-2.13q0.666-1.035,1.288-1.86c0.415-.55.787-1.01,1.117-1.37a4.165,4.165,0,0,1,.7-0.67l0.256,0.03a2.642,2.642,0,0,0-.165.27c-0.085.16-.184,0.36-0.3,0.61s-0.238.52-.369,0.84-0.25.63-.356,0.96-0.194.65-.266,0.98a4.083,4.083,0,0,0-.108.88,4.806,4.806,0,0,0,.162,1.19,4.125,4.125,0,0,0,.487,1.15,2.8,2.8,0,0,0,.831.88,2.062,2.062,0,0,0,1.193.34,3.438,3.438,0,0,0,.922-0.14,7.467,7.467,0,0,0,.964-0.35,10.077,10.077,0,0,0,.958-0.48c0.318-.19.613-0.37,0.885-0.55s0.521-.35.745-0.51,0.409-.29.555-0.4l-0.207-3.25a14.736,14.736,0,0,1-1.318,1.43,6.807,6.807,0,0,1-.6.52,5.458,5.458,0,0,1-.647.45,3.3,3.3,0,0,1-.659.32,1.63,1.63,0,0,1-.622.13,0.436,0.436,0,0,1-.379-0.3,1.829,1.829,0,0,1-.146-0.8,6.654,6.654,0,0,1,.226-1.74,9.182,9.182,0,0,1,.872-1.98,9.458,9.458,0,0,0,.879-1.94,5.951,5.951,0,0,0,.232-1.65,1.833,1.833,0,0,0-.11-0.69,1.131,1.131,0,0,0-.274-0.42,0.816,0.816,0,0,0-.348-0.2,1.071,1.071,0,0,0-.33-0.06,2.263,2.263,0,0,0-1.251.45,12.424,12.424,0,0,0-1.709,1.46,19.114,19.114,0,0,0-1.666,1.79c-0.415.52-.79,1-1.123,1.45Zm0.771-6.17c-0.225.52-.463,1.08-0.716,1.67s-0.509,1.19-.77,1.79-0.5,1.16-.722,1.67c0.1-.92.231-1.87,0.41-2.83,0.059-.41.122-0.85,0.189-1.31s0.135-.94.2-1.42,0.163-.95.281-1.43,0.246-.95.385-1.39a25.66,25.66,0,0,1,1.465-3.02,1.921,1.921,0,0,1,.94-1.04c0.174,0,.26.31,0.26,0.93a8.575,8.575,0,0,1-.324,1.89,27.587,27.587,0,0,1-1.045,3.15C753.156,6297.23,752.97,6297.67,752.746,6298.2Zm13.951,13.63a8.144,8.144,0,0,0,1.379-.45,10.748,10.748,0,0,0,1.27-.65c0.4-.24.779-0.49,1.129-0.74a16.044,16.044,0,0,0,2.283-2.03l-1.575-1.59a13.027,13.027,0,0,1-1.16.96,13.517,13.517,0,0,1-1.452.93,9.823,9.823,0,0,1-1.581.72,4.674,4.674,0,0,1-1.544.29,1.989,1.989,0,0,1-.435-0.05,1.172,1.172,0,0,1-.386-0.17,1.7,1.7,0,0,1-.362-0.33,4.674,4.674,0,0,1-.361-0.54,8.575,8.575,0,0,0,1.976-.8,7.166,7.166,0,0,0,1.572-1.17,6.607,6.607,0,0,0,1.156-1.58,3.537,3.537,0,0,0,.5-1.65,3.112,3.112,0,0,0-.244-1.26,2.9,2.9,0,0,0-.679-0.96,3.059,3.059,0,0,0-1.02-.61,3.519,3.519,0,0,0-1.271-.22,3.942,3.942,0,0,0-1.524.29,4.4,4.4,0,0,0-1.238.8,5.573,5.573,0,0,0-.966,1.15,7.846,7.846,0,0,0-.685,1.38c-0.183.49-.359,1.04-0.529,1.66a6.244,6.244,0,0,0-.255,1.61,6.753,6.753,0,0,0,.285,1.97,4.981,4.981,0,0,0,.855,1.65,4.09,4.09,0,0,0,1.425,1.14,4.474,4.474,0,0,0,2,.42A6.415,6.415,0,0,0,766.7,6311.83Zm-3.052-6.28a3.71,3.71,0,0,1,.226-0.94q0.2-.57.356-0.96a2.482,2.482,0,0,1,.4-0.69,1.9,1.9,0,0,1,.625-0.5,1.925,1.925,0,0,1,.9-0.19,0.588,0.588,0,0,1,.5.35,1.721,1.721,0,0,1,.2.88,1.786,1.786,0,0,1-.429.97,4.6,4.6,0,0,1-.876.93,4.5,4.5,0,0,1-.968.57,2.617,2.617,0,0,1-.962.22C763.62,6306.01,763.628,6305.8,763.645,6305.55Zm12.256,6.28a8.184,8.184,0,0,0,1.38-.45,10.812,10.812,0,0,0,1.269-.65c0.4-.24.779-0.49,1.129-0.74a16.044,16.044,0,0,0,2.283-2.03l-1.575-1.59a13.147,13.147,0,0,1-1.159.96,13.632,13.632,0,0,1-1.453.93,9.823,9.823,0,0,1-1.581.72,4.674,4.674,0,0,1-1.544.29,2,2,0,0,1-.435-0.05,1.172,1.172,0,0,1-.386-0.17,1.677,1.677,0,0,1-.361-0.33,4.671,4.671,0,0,1-.362-0.54,8.575,8.575,0,0,0,1.976-.8,7.166,7.166,0,0,0,1.572-1.17,6.607,6.607,0,0,0,1.156-1.58,3.537,3.537,0,0,0,.5-1.65,3.1,3.1,0,0,0-.244-1.26,2.885,2.885,0,0,0-.679-0.96,3.059,3.059,0,0,0-1.02-.61,3.519,3.519,0,0,0-1.271-.22,3.942,3.942,0,0,0-1.524.29,4.4,4.4,0,0,0-1.238.8,5.568,5.568,0,0,0-.965,1.15,7.782,7.782,0,0,0-.686,1.38c-0.182.49-.359,1.04-0.528,1.66a6.2,6.2,0,0,0-.255,1.61,6.786,6.786,0,0,0,.284,1.97,4.981,4.981,0,0,0,.855,1.65,4.09,4.09,0,0,0,1.425,1.14,4.474,4.474,0,0,0,2,.42A6.409,6.409,0,0,0,775.9,6311.83Zm-3.052-6.28a3.754,3.754,0,0,1,.226-0.94q0.2-.57.356-0.96a2.482,2.482,0,0,1,.4-0.69,1.86,1.86,0,0,1,1.526-.69,0.588,0.588,0,0,1,.5.35,1.711,1.711,0,0,1,.2.88,1.786,1.786,0,0,1-.429.97,4.6,4.6,0,0,1-.876.93,4.5,4.5,0,0,1-.968.57,2.617,2.617,0,0,1-.962.22C772.824,6306.01,772.832,6305.8,772.849,6305.55Z" transform="translate(-717.344 -6288.56)"/>
</svg>
